<?xml version="1.0" encoding="UTF-8" standalone="no"?>
<svg width="53px" height="53px" viewBox="0 0 53 53" version="1.1" xmlns="http://www.w3.org/2000/svg" xmlns:xlink="http://www.w3.org/1999/xlink" xmlns:sketch="http://www.bohemiancoding.com/sketch/ns">
    <!-- Generator: Sketch 3.3 (11970) - http://www.bohemiancoding.com/sketch -->
    <title>Oval 1 Copy + Imported Layers</title>
    <desc>Created with Sketch.</desc>
    <defs></defs>
    <g id="Page-1" stroke="none" stroke-width="1" fill="none" fill-rule="evenodd" sketch:type="MSPage">
        <g id="Artboard-1" sketch:type="MSArtboardGroup" transform="translate(-624.000000, -480.000000)">
            <g id="Oval-1-Copy-+-Imported-Layers" sketch:type="MSLayerGroup" transform="translate(624.000000, 480.000000)">
                <circle id="Oval-1-Copy" fill="#FFFFFF" sketch:type="MSShapeGroup" cx="26.5" cy="26.5" r="26.5"></circle>
                <path d="M26.5,37.5 C21.6248938,37.5 17,35.3398551 17,35.3398551 C17,30.1547101 21.2536109,25.9539855 26.5,25.9539855 C31.7463891,25.9539855 36,30.1547101 36,35.3398551 C36,35.3398551 31.2096432,37.5 26.5,37.5 L26.5,37.5 Z M31.798853,20.7289855 C31.798853,23.6184783 29.4299065,25.957971 26.5,25.957971 C23.5741291,25.957971 21.2051827,23.6184783 21.2051827,20.7289855 C21.2051827,17.8394928 23.5741291,15.5 26.5,15.5 C29.4299065,15.5 31.798853,17.8394928 31.798853,20.7289855 L31.798853,20.7289855 Z" id="Imported-Layers" stroke="#FF6039" stroke-width="2" stroke-linecap="round" stroke-linejoin="round" sketch:type="MSShapeGroup"></path>
            </g>
        </g>
    </g>
</svg>